<svg width="70" height="44" viewBox="0 0 70 44" fill="none" xmlns="http://www.w3.org/2000/svg" xmlns:xlink="http://www.w3.org/1999/xlink">
<g clip-path="url(#clip0_0_161)">
<path d="M45.6348 21.1039L46.9133 24.0542C47.1496 24.598 47.8002 24.8552 48.3678 24.6293C48.9364 24.4057 49.206 23.783 48.9704 23.2389L47.6922 20.2896L45.6348 21.1039Z" fill="#333333"/>
<path d="M46.4877 23.0706L48.5447 22.2561L46.4877 23.0706Z" fill="#333333"/>
<path d="M42.9372 14.877L45.8465 16.0287L42.9372 14.877Z" fill="#333333"/>
<path d="M44.5203 8.89645C44.5203 10.4642 43.1915 11.7349 41.5531 11.7349C39.9129 11.7349 38.5838 10.4642 38.5838 8.89645C38.5838 7.32897 39.9129 6.05896 41.5531 6.05896C43.1912 6.05896 44.5203 7.32897 44.5203 8.89645Z" fill="#333333"/>
<path d="M43.0359 8.89649C43.0359 9.68086 42.3719 10.3163 41.5527 10.3163C40.7325 10.3163 40.067 9.68086 40.067 8.89649C40.067 8.11278 40.7325 7.4773 41.5527 7.4773C42.3719 7.47694 43.0359 8.11278 43.0359 8.89649Z" fill="#333333"/>
<path d="M39.4707 10.9196L35.41 20.2899L34.3921 24.4949L35.0777 24.7664L37.4677 21.1043L38.0363 19.7937C37.5926 18.769 38.1009 17.5942 39.1724 17.1706L41.5271 11.734C40.7262 11.7276 40.0016 11.4183 39.4707 10.9196Z" fill="#333333"/>
<path d="M43.6331 10.9189C43.1018 11.4183 42.3766 11.7276 41.5757 11.7337L45.0686 19.7921L47.125 18.9781L43.6331 10.9189Z" fill="#333333"/>
<path d="M42.6653 4.63947V1.44605C42.6649 0.85753 42.165 0.38147 41.5521 0.38147C40.9372 0.38147 40.439 0.856886 40.4386 1.44605L40.439 4.63947H42.6653Z" fill="#333333"/>
<path d="M41.5527 6.05899C41.7424 6.05899 41.9284 6.07721 42.1083 6.10982V4.63977H40.9955V6.10982C41.1762 6.07689 41.3611 6.05899 41.5527 6.05899Z" fill="#333333"/>
<path d="M26.0957 25.9407H22.3929V0.380859H26.0963C26.9146 0.380859 27.5774 1.01699 27.5774 1.80136V24.5214H27.5771C27.5768 25.3058 26.9139 25.9407 26.0957 25.9407Z" fill="#333333"/>
<path d="M25.911 2.51126C26.2179 2.51126 26.4667 2.27281 26.4667 1.97865C26.4667 1.6845 26.2179 1.44604 25.911 1.44604C25.6042 1.44604 25.3555 1.6845 25.3555 1.97865C25.3555 2.27281 25.6042 2.51126 25.911 2.51126Z" fill="#333333"/>
<path d="M30.1694 15.4696C30.1694 15.7626 30.4184 16.0019 30.725 16.0019C31.032 16.0019 31.2806 15.7626 31.2806 15.4696C31.2806 15.7626 31.5299 16.0019 31.8362 16.0019C32.1431 16.0019 32.3917 15.7626 32.3917 15.4696C32.3917 15.7626 32.1431 16.0019 31.8362 16.0019C31.5299 16.0019 31.2806 15.7626 31.2806 15.4696C31.2806 15.7626 31.032 16.0019 30.725 16.0019C30.4184 16.0019 30.1694 15.7626 30.1694 15.4696Z" fill="#333333"/>
<path d="M30.9103 0.380859C30.5017 0.380859 30.1694 0.699402 30.1694 1.09175V1.09143V16.0016L31.2802 20.2615L32.3914 16.0016V1.09111V1.09143C32.3914 0.699722 32.0595 0.381179 31.6505 0.381179L30.9103 0.380859Z" fill="#333333"/>
</g>
<path d="M68.5517 31.4049H0V43.8571H68.5517V31.4049Z" fill="url(#pattern0)"/>
<defs>
<pattern id="pattern0" patternContentUnits="objectBoundingBox" width="1" height="1">
<use xlink:href="#image0_0_161" transform="scale(0.000906618 0.00478469)"/>
</pattern>
<clipPath id="clip0_0_161">
<rect width="68.5517" height="41.5272" fill="white" transform="translate(1.44824 0.142822)"/>
</clipPath>

</defs>
</svg>
